<!--?xml version="1.0" encoding="utf-8"?-->
<!-- Generator: Adobe Illustrator 16.0.0, SVG Export Plug-In . SVG Version: 6.00 Build 0)  -->

<svg version="1.1" id="圖層_1" xmlns="http://www.w3.org/2000/svg" xmlns:xlink="http://www.w3.org/1999/xlink" x="0px" y="0px" width="277.722px" height="192px" viewBox="0 0 277.722 192" enable-background="new 0 0 277.722 192" xml:space="preserve" style="">
<g>
	<path fill="none" stroke="#000000" stroke-width="2" d="M155.29,97.569l-14.652,1.776c-0.222,15.54-0.443,31.524-0.443,49.062
		v10.879c-17.095,9.768-33.078,14.651-53.725,14.651C35.41,173.938,1,140.193,1,87.136C1,34.966,36.298,1,87.802,1
		c19.536,0,34.632,4.218,48.396,12.21l-0.444,38.405h-13.098l-9.324-36.852c-6.66-3.33-13.542-4.662-21.534-4.662
		c-33.3,0-57.72,26.196-57.72,77.256c0,48.396,23.532,77.479,56.388,77.479c7.326,0,13.765-0.889,20.202-2.664v-14.43
		c0-16.206-0.222-31.746-0.666-47.73l-24.42-2.442V89.8h69.708V97.569z" class="pbumUnfS_0"></path>
	<path fill="none" stroke="#000000" stroke-width="2" d="M198.355,109.779c0.888,33.967,17.76,48.841,39.294,48.841
		c15.984,0,25.53-6.66,33.3-17.095l4.44,3.108c-8.88,18.204-25.752,28.638-47.73,28.638c-34.854,0-60.162-22.644-60.162-63.048
		c0-39.96,29.305-62.826,60.384-62.826c30.414,0,48.841,20.646,48.841,48.618c0,5.772-0.444,9.99-1.555,13.764H198.355z
		 M236.317,101.565c10.212,0,12.654-5.105,12.654-16.428c0-17.982-9.546-29.526-23.089-29.526
		c-13.985,0-26.195,13.542-27.527,45.954H236.317z" class="pbumUnfS_1"></path>
	<path fill="none" stroke="#000000" stroke-width="2" stroke-miterlimit="10" d="M1.709,191L276.709,191" class="pbumUnfS_2"></path>
</g>
<style data-made-with="vivus-instant">.pbumUnfS_0{stroke-dasharray:977 979;stroke-dashoffset:978;animation:pbumUnfS_draw 2000ms ease 0ms forwards;}.pbumUnfS_1{stroke-dasharray:702 704;stroke-dashoffset:703;animation:pbumUnfS_draw 2000ms ease 500ms forwards;}.pbumUnfS_2{stroke-dasharray:275 277;stroke-dashoffset:276;animation:pbumUnfS_draw 2000ms ease 1000ms forwards;}@keyframes pbumUnfS_draw{100%{stroke-dashoffset:0;}}@keyframes pbumUnfS_fade{0%{stroke-opacity:1;}94.44444444444444%{stroke-opacity:1;}100%{stroke-opacity:0;}}</style></svg>
