<?xml version="1.0" encoding="utf-8"?>
<!-- Generator: Adobe Illustrator 16.0.0, SVG Export Plug-In . SVG Version: 6.00 Build 0)  -->
<!DOCTYPE svg PUBLIC "-//W3C//DTD SVG 1.1//EN" "http://www.w3.org/Graphics/SVG/1.1/DTD/svg11.dtd">
<svg version="1.1" id="圖層_1" xmlns="http://www.w3.org/2000/svg" xmlns:xlink="http://www.w3.org/1999/xlink" x="0px" y="0px"
	 width="895.935px" height="204.038px" viewBox="0 0 895.935 204.038" enable-background="new 0 0 895.935 204.038"
	 xml:space="preserve">
<path stroke="#000000" stroke-width="2" d="M155.29,109.19l-14.652,1.776c-0.222,15.54-0.443,31.524-0.443,49.062v10.879
	c-17.095,9.768-33.078,14.651-53.725,14.651C35.41,185.558,1,151.814,1,98.756c0-52.17,35.298-86.136,86.802-86.136
	c19.536,0,34.632,4.218,48.396,12.21l-0.444,38.405h-13.098l-9.324-36.852c-6.66-3.33-13.542-4.662-21.534-4.662
	c-33.3,0-57.72,26.196-57.72,77.256c0,48.396,23.532,77.479,56.388,77.479c7.326,0,13.765-0.889,20.202-2.664v-14.43
	c0-16.206-0.222-31.746-0.666-47.73l-24.42-2.442v-7.77h69.708V109.19z"/>
<path stroke="#000000" stroke-width="2" d="M198.355,121.4c0.888,33.967,17.76,48.841,39.294,48.841
	c15.984,0,25.53-6.66,33.3-17.095l4.44,3.108c-8.88,18.204-25.752,28.638-47.73,28.638c-34.854,0-60.162-22.644-60.162-63.048
	c0-39.96,29.305-62.826,60.384-62.826c30.414,0,48.841,20.646,48.841,48.618c0,5.772-0.444,9.99-1.555,13.764H198.355z
	 M236.317,113.186c10.212,0,12.654-5.105,12.654-16.428c0-17.982-9.546-29.526-23.089-29.526c-13.985,0-26.195,13.542-27.527,45.954
	H236.317z"/>
<line fill="none" stroke="#000000" stroke-width="2" stroke-miterlimit="10" x1="1.925" y1="203.038" x2="276.925" y2="203.038"/>
<path stroke="#000000" stroke-width="2" d="M383.985,168.668c-6.438,9.99-16.872,15.762-31.968,15.762
	c-20.424,0-31.746-9.99-31.746-32.633c0-7.104,0.222-13.32,0.222-22.201V71.432h-19.092v-7.326l20.646-2.219l9.546-34.854h19.092
	l-0.666,35.075h29.304v9.324h-29.526v82.141c0,12.432,5.55,17.539,14.43,17.539c5.772,0,9.768-2.221,15.762-6.66L383.985,168.668z"
	/>
<path stroke="#000000" stroke-width="2" d="M529.614,175.997v6.883h-60.828v-6.883l15.984-1.998
	c0.222-12.432,0.444-30.635,0.444-43.289v-28.416c0-19.314-6.438-25.975-17.982-25.975c-8.88,0-18.426,4.439-29.304,14.43v39.961
	c0,12.209,0.222,30.857,0.666,43.512l14.208,1.775v6.883h-60.384v-6.883l16.206-1.998c0.222-12.654,0.444-31.08,0.444-43.289V18.156
	l-17.982-1.332v-6.217l43.956-9.546l3.33,1.997l-0.888,35.298v45.066c13.32-15.318,26.418-22.865,42.624-22.865
	c21.09,0,33.966,12.654,33.966,43.512v26.641c0,12.654,0.222,30.857,0.444,43.512L529.614,175.997z"/>
<path stroke="#000000" stroke-width="2" d="M576.009,120.938c0.888,33.967,17.76,48.842,39.294,48.842
	c15.984,0,25.529-6.66,33.299-17.096l4.441,3.109c-8.881,18.203-25.752,28.637-47.73,28.637c-34.854,0-60.163-22.643-60.163-63.047
	c0-39.961,29.305-62.826,60.385-62.826c30.414,0,48.84,20.646,48.84,48.617c0,5.773-0.445,9.99-1.555,13.764H576.009z
	 M613.972,112.725c10.211,0,12.654-5.105,12.654-16.428c0-17.982-9.547-29.527-23.088-29.527c-13.987,0-26.197,13.543-27.529,45.955
	H613.972z"/>
<line fill="none" stroke="#000000" stroke-width="2" stroke-miterlimit="10" x1="300.925" y1="203.038" x2="653.925" y2="203.038"/>
<path stroke="#000000" stroke-width="2" d="M724.437,92.728c7.105-21.313,21.979-33.078,35.299-33.078
	c9.324,0,17.316,3.773,19.98,14.207c-0.666,9.99-4.885,16.873-15.318,16.873c-7.326,0-11.988-4.219-17.539-10.656l-2.441-2.664
	c-9.324,7.326-15.318,17.094-19.98,32.635v19.758c0,11.988,0.223,29.969,0.445,42.623l20.424,2.664v6.883H689.36v-6.883l5.328-1.998
	c0.223-12.654,0.445-31.08,0.445-43.289v-15.984c0-14.43-0.223-22.422-0.889-33.078l-17.537-1.775v-5.551l42.623-13.541l3.107,1.996
	L724.437,92.728z"/>
<path stroke="#000000" stroke-width="2" d="M816.567,121.031c0.889,33.967,17.76,48.842,39.295,48.842
	c15.984,0,25.529-6.66,33.299-17.096l4.441,3.109c-8.881,18.203-25.752,28.637-47.73,28.637c-34.854,0-60.162-22.643-60.162-63.047
	c0-39.961,29.305-62.826,60.385-62.826c30.414,0,48.84,20.646,48.84,48.617c0,5.773-0.445,9.99-1.555,13.764H816.567z
	 M854.53,112.818c10.211,0,12.654-5.105,12.654-16.428c0-17.982-9.547-29.527-23.088-29.527c-13.986,0-26.197,13.543-27.529,45.955
	H854.53z"/>
<line fill="none" stroke="#000000" stroke-width="2" stroke-miterlimit="10" x1="675.925" y1="203.038" x2="894.925" y2="203.038"/>
</svg>
