<!--?xml version="1.0" encoding="utf-8"?-->
<!-- Generator: Adobe Illustrator 16.0.0, SVG Export Plug-In . SVG Version: 6.00 Build 0)  -->

<svg version="1.1" id="圖層_1" xmlns="http://www.w3.org/2000/svg" xmlns:xlink="http://www.w3.org/1999/xlink" x="0px" y="0px" width="220.227px" height="145.591px" viewBox="0 0 220.227 145.591" enable-background="new 0 0 220.227 145.591" xml:space="preserve" style="">
<g>
	<path fill="none" stroke="#000000" stroke-width="2" d="M48.729,35.078C55.834,13.766,70.708,2,84.027,2
		c9.324,0,17.316,3.773,19.98,14.207c-0.666,9.99-4.884,16.873-15.318,16.873c-7.326,0-11.988-4.219-17.538-10.656L68.71,19.76
		c-9.324,7.326-15.318,17.094-19.98,32.635v19.758c0,11.988,0.222,29.968,0.444,42.623l20.424,2.664v6.883H13.653v-6.883
		l5.328-1.998c0.222-12.654,0.444-31.08,0.444-43.289V56.168c0-14.43-0.223-22.422-0.889-33.078L1,21.314v-5.551L43.624,2.223
		l3.107,1.996L48.729,35.078z" class="NSVIFAlA_0"></path>
	<path fill="none" stroke="#000000" stroke-width="2" d="M140.86,63.381c0.888,33.966,17.76,48.841,39.294,48.841
		c15.984,0,25.53-6.66,33.3-17.096l4.44,3.109c-8.88,18.203-25.752,28.637-47.73,28.637c-34.854,0-60.162-22.643-60.162-63.046
		C110.002,23.865,139.307,1,170.387,1c30.414,0,48.84,20.646,48.84,48.617c0,5.773-0.444,9.99-1.554,13.764H140.86z M178.822,55.168
		c10.212,0,12.654-5.105,12.654-16.428c0-17.982-9.546-29.527-23.088-29.527c-13.986,0-26.196,13.543-27.528,45.955H178.822z" class="NSVIFAlA_1"></path>
	<path fill="none" stroke="#000000" stroke-width="2" stroke-miterlimit="10" d="M0.019,144.591L219.019,144.591" class="NSVIFAlA_2"></path>
</g>
<style data-made-with="vivus-instant">.NSVIFAlA_0{stroke-dasharray:521 523;stroke-dashoffset:522;animation:NSVIFAlA_draw 2000ms ease 0ms forwards;}.NSVIFAlA_1{stroke-dasharray:702 704;stroke-dashoffset:703;animation:NSVIFAlA_draw 2000ms ease 500ms forwards;}.NSVIFAlA_2{stroke-dasharray:219 221;stroke-dashoffset:220;animation:NSVIFAlA_draw 2000ms ease 1000ms forwards;}@keyframes NSVIFAlA_draw{100%{stroke-dashoffset:0;}}@keyframes NSVIFAlA_fade{0%{stroke-opacity:1;}94.44444444444444%{stroke-opacity:1;}100%{stroke-opacity:0;}}</style></svg>
