<!--?xml version="1.0" encoding="utf-8"?-->
<!-- Generator: Adobe Illustrator 16.0.0, SVG Export Plug-In . SVG Version: 6.00 Build 0)  -->

<svg version="1.1" id="圖層_1" xmlns="http://www.w3.org/2000/svg" xmlns:xlink="http://www.w3.org/1999/xlink" x="0px" y="0px" width="354.974px" height="203.621px" viewBox="0 0 354.974 203.621" enable-background="new 0 0 354.974 203.621" xml:space="preserve" style="">
<g>
	<path fill="none" stroke="#000000" stroke-width="2" d="M83.584,168.668c-6.438,9.99-16.872,15.762-31.968,15.762
		c-20.424,0-31.746-9.99-31.746-32.633c0-7.104,0.222-13.32,0.222-22.201V71.432H1v-7.326l20.646-2.219l9.546-34.854h19.092
		l-0.666,35.075h29.304v9.324H49.396v82.141c0,12.432,5.55,17.539,14.43,17.539c5.772,0,9.768-2.221,15.762-6.66L83.584,168.668z" class="oQtkUFcW_0"></path>
	<path fill="none" stroke="#000000" stroke-width="2" d="M229.212,175.997v6.883h-60.828v-6.883l15.984-1.998
		c0.223-12.432,0.444-30.635,0.444-43.289v-28.416c0-19.314-6.438-25.975-17.982-25.975c-8.88,0-18.426,4.439-29.304,14.43v39.961
		c0,12.209,0.222,30.857,0.666,43.512l14.208,1.775v6.883H92.017v-6.883l16.206-1.998c0.222-12.654,0.444-31.08,0.444-43.289V18.155
		l-17.982-1.332v-6.216l43.956-9.546l3.33,1.998l-0.888,35.297v45.066c13.32-15.318,26.418-22.865,42.624-22.865
		c21.09,0,33.967,12.654,33.967,43.512v26.641c0,12.654,0.221,30.857,0.443,43.512L229.212,175.997z" class="oQtkUFcW_1"></path>
	<path fill="none" stroke="#000000" stroke-width="2" d="M275.609,120.938c0.887,33.967,17.76,48.842,39.293,48.842
		c15.984,0,25.531-6.66,33.301-17.096l4.439,3.109c-8.879,18.203-25.752,28.637-47.73,28.637c-34.854,0-60.162-22.643-60.162-63.047
		c0-39.961,29.305-62.826,60.385-62.826c30.414,0,48.84,20.646,48.84,48.617c0,5.773-0.443,9.99-1.553,13.764H275.609z
		 M313.57,112.725c10.213,0,12.654-5.105,12.654-16.428c0-17.982-9.545-29.527-23.088-29.527c-13.986,0-26.195,13.543-27.527,45.955
		H313.57z" class="oQtkUFcW_2"></path>
	<path fill="none" stroke="#000000" stroke-width="2" stroke-miterlimit="10" d="M1.017,202.621L354.017,202.621" class="oQtkUFcW_3"></path>
</g>
<style data-made-with="vivus-instant">.oQtkUFcW_0{stroke-dasharray:507 509;stroke-dashoffset:508;animation:oQtkUFcW_draw 2000ms ease 0ms forwards;}.oQtkUFcW_1{stroke-dasharray:929 931;stroke-dashoffset:930;animation:oQtkUFcW_draw 2000ms ease 333ms forwards;}.oQtkUFcW_2{stroke-dasharray:702 704;stroke-dashoffset:703;animation:oQtkUFcW_draw 2000ms ease 666ms forwards;}.oQtkUFcW_3{stroke-dasharray:353 355;stroke-dashoffset:354;animation:oQtkUFcW_draw 2000ms ease 1000ms forwards;}@keyframes oQtkUFcW_draw{100%{stroke-dashoffset:0;}}@keyframes oQtkUFcW_fade{0%{stroke-opacity:1;}94.44444444444444%{stroke-opacity:1;}100%{stroke-opacity:0;}}</style></svg>
